<svg xmlns="http://www.w3.org/2000/svg" xmlns:xlink="http://www.w3.org/1999/xlink" width="500" zoomAndPan="magnify" viewBox="0 0 375 374.999991" height="500" preserveAspectRatio="xMidYMid meet" version="1.0"><defs><g/><clipPath id="9b66c30047"><path d="M 142 126.117188 L 233 126.117188 L 233 261.867188 L 142 261.867188 Z M 142 126.117188 " clip-rule="nonzero"/></clipPath></defs><rect x="-37.5" width="450" fill="#ffffff" y="-37.499999" height="449.999989" fill-opacity="1"/><rect x="-37.5" width="450" fill="#fffaf5" y="-37.499999" height="449.999989" fill-opacity="1"/><path fill="#e53c68" d="M 158.757812 143.828125 C 158.945312 144.621094 157.695312 145.550781 158.128906 146.492188 C 162.570312 156.074219 171.65625 160.382812 182.058594 166.46875 L 178.566406 156.6875 L 172.898438 133.960938 C 170.046875 131.027344 164.902344 133.363281 163.941406 135.734375 C 163.757812 136.160156 163.449219 136.453125 163.011719 136.605469 C 161.453125 137.152344 157.414062 138.078125 158.757812 143.828125 Z M 158.757812 143.828125 " fill-opacity="1" fill-rule="nonzero"/><path fill="#e53c68" d="M 216.207031 143.828125 C 216.023438 144.621094 217.269531 145.550781 216.835938 146.492188 C 212.394531 156.074219 203.3125 160.382812 192.90625 166.46875 L 196.394531 156.6875 L 202.691406 133.675781 C 205.453125 130.828125 210.53125 133.054688 211.515625 135.425781 C 211.699219 135.851562 212.007812 136.144531 212.449219 136.296875 C 213.988281 136.839844 217.554688 138.078125 216.207031 143.828125 Z M 216.207031 143.828125 " fill-opacity="1" fill-rule="nonzero"/><path fill="#ce255a" d="M 199.429688 131.03125 C 199.203125 131.03125 198.996094 130.972656 198.804688 130.855469 C 198.613281 130.734375 198.46875 130.578125 198.367188 130.375 C 197.164062 127.894531 192.390625 126.148438 188.492188 128.558594 C 188.183594 128.75 187.847656 128.84375 187.484375 128.84375 C 187.121094 128.84375 186.78125 128.75 186.472656 128.558594 C 182.574219 126.148438 177.796875 127.894531 176.597656 130.375 C 176.496094 130.578125 176.351562 130.734375 176.160156 130.851562 C 175.96875 130.972656 175.761719 131.03125 175.535156 131.03125 C 170.054688 131.101562 164.4375 136.898438 165.125 142.742188 C 165.125 142.804688 168.183594 149.667969 168.183594 149.667969 C 168.183594 149.921875 168.230469 150.164062 168.328125 150.398438 C 168.425781 150.632812 168.5625 150.839844 168.742188 151.019531 C 168.921875 151.195312 169.128906 151.335938 169.363281 151.433594 C 169.597656 151.527344 169.84375 151.578125 170.09375 151.578125 L 204.867188 151.578125 C 205.121094 151.578125 205.367188 151.53125 205.601562 151.433594 C 205.835938 151.335938 206.042969 151.199219 206.222656 151.019531 C 206.402344 150.839844 206.539062 150.632812 206.636719 150.398438 C 206.734375 150.164062 206.78125 149.921875 206.78125 149.667969 C 206.78125 149.667969 209.832031 142.804688 209.839844 142.742188 C 210.527344 136.894531 204.914062 131.09375 199.429688 131.03125 Z M 199.429688 131.03125 " fill-opacity="1" fill-rule="nonzero"/><path fill="#e53c68" d="M 194.378906 136.527344 C 194.210938 136.640625 194.023438 136.71875 193.828125 136.765625 C 193.628906 136.8125 193.425781 136.824219 193.226562 136.796875 C 193.023438 136.773438 192.832031 136.710938 192.648438 136.617188 C 192.46875 136.523438 192.308594 136.398438 192.175781 136.246094 C 191.246094 135.210938 189.730469 134.265625 187.484375 134.265625 C 185.234375 134.265625 183.722656 135.210938 182.792969 136.246094 C 182.65625 136.398438 182.496094 136.523438 182.316406 136.617188 C 182.136719 136.710938 181.945312 136.773438 181.742188 136.796875 C 181.539062 136.824219 181.339844 136.8125 181.140625 136.765625 C 180.941406 136.71875 180.757812 136.640625 180.585938 136.527344 C 177.984375 134.851562 171.328125 137.0625 169.75 142.84375 L 171.113281 153.863281 L 203.863281 153.863281 L 205.230469 142.84375 C 203.636719 137.0625 196.980469 134.84375 194.378906 136.527344 Z M 194.378906 136.527344 " fill-opacity="1" fill-rule="nonzero"/><path fill="#f25375" d="M 195.898438 150.882812 C 195.898438 151.414062 195.84375 151.945312 195.738281 152.46875 C 195.628906 152.992188 195.46875 153.5 195.257812 153.992188 C 195.046875 154.488281 194.789062 154.953125 194.480469 155.398438 C 194.175781 155.84375 193.824219 156.253906 193.433594 156.632812 C 193.042969 157.007812 192.617188 157.347656 192.160156 157.640625 C 191.699219 157.9375 191.214844 158.191406 190.703125 158.394531 C 190.191406 158.597656 189.667969 158.753906 189.125 158.855469 C 188.582031 158.960938 188.035156 159.011719 187.484375 159.011719 C 186.929688 159.011719 186.382812 158.960938 185.839844 158.855469 C 185.300781 158.753906 184.773438 158.597656 184.261719 158.394531 C 183.75 158.191406 183.265625 157.9375 182.808594 157.640625 C 182.347656 157.347656 181.921875 157.007812 181.53125 156.632812 C 181.140625 156.253906 180.792969 155.84375 180.484375 155.398438 C 180.175781 154.953125 179.917969 154.488281 179.707031 153.992188 C 179.496094 153.5 179.335938 152.992188 179.226562 152.46875 C 179.121094 151.945312 179.066406 151.414062 179.066406 150.882812 C 179.066406 150.347656 179.121094 149.820312 179.226562 149.296875 C 179.335938 148.769531 179.496094 148.261719 179.707031 147.769531 C 179.917969 147.277344 180.175781 146.808594 180.484375 146.363281 C 180.792969 145.917969 181.140625 145.507812 181.53125 145.132812 C 181.921875 144.753906 182.347656 144.417969 182.808594 144.121094 C 183.265625 143.824219 183.75 143.574219 184.261719 143.367188 C 184.773438 143.164062 185.300781 143.011719 185.839844 142.90625 C 186.382812 142.800781 186.929688 142.75 187.484375 142.75 C 188.035156 142.75 188.582031 142.800781 189.125 142.90625 C 189.667969 143.011719 190.191406 143.164062 190.703125 143.367188 C 191.214844 143.574219 191.699219 143.824219 192.160156 144.121094 C 192.617188 144.417969 193.042969 144.753906 193.433594 145.132812 C 193.824219 145.507812 194.175781 145.917969 194.480469 146.363281 C 194.789062 146.808594 195.046875 147.277344 195.257812 147.769531 C 195.46875 148.261719 195.628906 148.769531 195.738281 149.296875 C 195.84375 149.820312 195.898438 150.347656 195.898438 150.882812 Z M 195.898438 150.882812 " fill-opacity="1" fill-rule="nonzero"/><path fill="#216989" d="M 187.484375 155.703125 C 178.503906 155.328125 168.363281 158.109375 169.023438 164.980469 C 169.582031 170.898438 177.699219 166.980469 180.621094 173.292969 C 182.058594 176.390625 185.636719 176.953125 187.484375 176.953125 C 189.328125 176.953125 192.910156 176.394531 194.347656 173.292969 C 197.269531 166.980469 205.378906 170.898438 205.945312 164.980469 C 206.605469 158.109375 196.464844 155.328125 187.484375 155.703125 Z M 187.484375 155.703125 " fill-opacity="1" fill-rule="nonzero"/><path fill="#e53c68" d="M 215.71875 145.207031 C 219.675781 143.703125 221.5 147.890625 221.820312 149.535156 C 221.949219 150.191406 222.296875 150.695312 222.871094 151.042969 C 226.433594 153.246094 215.984375 151.527344 211.914062 158.308594 C 208.449219 165.316406 195.277344 159.671875 190.714844 166.464844 L 190.714844 157.636719 Z M 215.71875 145.207031 " fill-opacity="1" fill-rule="nonzero"/><path fill="#ff768a" d="M 215.339844 146.65625 L 214.707031 146.773438 L 215.074219 146.492188 Z M 215.339844 146.65625 " fill-opacity="1" fill-rule="nonzero"/><path fill="#e53c68" d="M 159.246094 145.207031 C 155.292969 143.703125 153.464844 147.890625 153.148438 149.535156 C 153.019531 150.191406 152.667969 150.695312 152.09375 151.042969 C 148.53125 153.246094 158.984375 151.527344 163.050781 158.308594 C 166.519531 165.316406 179.6875 159.671875 184.253906 166.464844 L 184.253906 157.636719 Z M 159.246094 145.207031 " fill-opacity="1" fill-rule="nonzero"/><path fill="#f25375" d="M 203.410156 139.585938 C 200.332031 140.195312 199.210938 142.507812 198.816406 144.257812 C 198.761719 144.476562 198.664062 144.675781 198.527344 144.855469 C 198.386719 145.03125 198.21875 145.175781 198.019531 145.28125 C 197.816406 145.386719 197.605469 145.449219 197.378906 145.464844 C 197.15625 145.484375 196.933594 145.453125 196.722656 145.375 C 192.855469 144.078125 188.136719 146.308594 187.484375 149.449219 C 186.832031 146.308594 182.113281 144.078125 178.25 145.375 C 178.035156 145.453125 177.816406 145.484375 177.589844 145.464844 C 177.367188 145.449219 177.152344 145.386719 176.953125 145.28125 C 176.753906 145.175781 176.585938 145.03125 176.445312 144.855469 C 176.308594 144.675781 176.210938 144.476562 176.15625 144.257812 C 175.753906 142.507812 174.640625 140.195312 171.5625 139.585938 C 168.574219 138.996094 162.011719 141.152344 161.617188 147.320312 C 161.617188 147.320312 177.148438 160.304688 187.484375 163.648438 C 197.816406 160.296875 213.347656 147.320312 213.347656 147.320312 C 212.953125 141.152344 206.394531 138.996094 203.410156 139.585938 Z M 203.410156 139.585938 " fill-opacity="1" fill-rule="nonzero"/><path fill="#f96480" d="M 218.472656 144.199219 C 218.125 144.964844 217.722656 145.839844 217.632812 146.460938 C 218.328125 151.152344 214.925781 156.476562 207.582031 160.863281 C 207.042969 161.1875 206.464844 161.507812 205.890625 161.816406 C 201.148438 164.34375 195.003906 166.507812 187.484375 167.949219 L 187.484375 158.726562 C 189.511719 155.832031 192.179688 155.128906 194.335938 155.191406 C 194.722656 155.207031 195.109375 155.1875 195.496094 155.136719 C 196.484375 155.011719 197.410156 154.695312 198.269531 154.191406 C 199.132812 153.691406 199.859375 153.039062 200.453125 152.238281 C 204.898438 146.242188 213.210938 140.449219 217.210938 141.539062 C 217.484375 141.613281 217.726562 141.746094 217.941406 141.925781 C 218.15625 142.109375 218.324219 142.328125 218.445312 142.582031 C 218.566406 142.835938 218.628906 143.105469 218.632812 143.386719 C 218.636719 143.667969 218.582031 143.9375 218.472656 144.199219 Z M 218.472656 144.199219 " fill-opacity="1" fill-rule="nonzero"/><path fill="#f96480" d="M 187.484375 158.714844 L 187.484375 167.9375 C 179.960938 166.507812 173.816406 164.34375 169.078125 161.828125 C 168.488281 161.519531 167.921875 161.199219 167.378906 160.875 C 160.035156 156.488281 156.636719 151.160156 157.335938 146.472656 C 157.242188 145.851562 156.84375 144.976562 156.496094 144.207031 C 156.378906 143.949219 156.324219 143.679688 156.328125 143.394531 C 156.332031 143.113281 156.394531 142.84375 156.515625 142.585938 C 156.636719 142.332031 156.804688 142.109375 157.019531 141.925781 C 157.238281 141.746094 157.480469 141.613281 157.753906 141.539062 C 161.75 140.449219 170.070312 146.242188 174.511719 152.238281 C 175.109375 153.035156 175.835938 153.683594 176.695312 154.183594 C 177.554688 154.683594 178.480469 155 179.464844 155.125 C 179.851562 155.175781 180.242188 155.191406 180.632812 155.179688 C 182.785156 155.125 185.453125 155.820312 187.484375 158.714844 Z M 187.484375 158.714844 " fill-opacity="1" fill-rule="nonzero"/><path fill="#ff839b" d="M 183.816406 163.160156 C 183.328125 163.34375 180.710938 167.402344 180.65625 167.785156 C 178.242188 166.34375 174.953125 166.15625 171.359375 165.808594 C 170.28125 165.707031 169.171875 165.585938 168.050781 165.410156 C 161.988281 164.484375 155.570312 161.996094 151.257812 151.824219 L 151.382812 151.75 C 151.238281 152.9375 159.636719 149.253906 163.753906 156.253906 C 164.652344 158.066406 166.148438 158.988281 167.953125 159.472656 C 168.597656 159.636719 169.253906 159.757812 169.914062 159.835938 C 174.683594 160.410156 180.664062 159.382812 183.816406 163.160156 Z M 183.816406 163.160156 " fill-opacity="1" fill-rule="nonzero"/><path fill="#ff839b" d="M 223.589844 151.75 C 223.734375 152.9375 215.335938 149.253906 211.214844 156.253906 C 210.316406 158.066406 208.820312 158.988281 207.015625 159.472656 C 206.371094 159.636719 205.714844 159.757812 205.054688 159.835938 C 200.296875 160.410156 194.300781 159.382812 191.148438 163.160156 C 191.636719 163.34375 194.257812 167.402344 194.308594 167.785156 C 196.726562 166.34375 200.015625 166.15625 203.605469 165.808594 C 204.6875 165.707031 205.792969 165.585938 206.914062 165.410156 C 212.976562 164.484375 219.394531 161.996094 223.707031 151.824219 Z M 223.589844 151.75 " fill-opacity="1" fill-rule="nonzero"/><path fill="#ff839b" d="M 199.609375 157.203125 C 198.863281 157.230469 198.152344 157.085938 197.472656 156.773438 C 196.792969 156.460938 196.21875 156.011719 195.753906 155.429688 C 193.875 153.101562 190.917969 151.824219 187.484375 151.824219 C 184.046875 151.824219 181.09375 153.101562 179.207031 155.429688 C 178.742188 156.015625 178.171875 156.460938 177.492188 156.773438 C 176.8125 157.085938 176.101562 157.230469 175.355469 157.203125 C 169.914062 156.96875 166.550781 163.429688 171.273438 165.785156 L 174.835938 166.828125 C 178.964844 168.039062 183.179688 168.644531 187.484375 168.644531 C 191.785156 168.644531 196.003906 168.039062 200.132812 166.828125 L 203.691406 165.785156 C 208.414062 163.429688 205.050781 156.96875 199.609375 157.203125 Z M 199.609375 157.203125 " fill-opacity="1" fill-rule="nonzero"/><path fill="#1ba59e" d="M 194.164062 227.792969 C 193.09375 220.808594 196.011719 214.320312 201.769531 212.460938 C 202.335938 212.285156 202.847656 212.003906 203.300781 211.617188 C 203.75 211.234375 204.109375 210.773438 204.375 210.242188 C 207.808594 203.121094 217.660156 198.214844 219.558594 201.996094 C 219.6875 202.253906 219.878906 202.457031 220.125 202.601562 C 220.375 202.746094 220.644531 202.8125 220.933594 202.800781 C 226.304688 202.496094 228.847656 198.117188 229.867188 195.535156 C 229.949219 195.320312 230.089844 195.152344 230.289062 195.035156 C 230.484375 194.917969 230.699219 194.871094 230.925781 194.894531 C 231.15625 194.917969 231.351562 195.011719 231.519531 195.167969 C 231.6875 195.328125 231.789062 195.519531 231.824219 195.746094 C 232.386719 199.222656 229.960938 206.703125 226.429688 210.527344 C 225.953125 211.058594 225.699219 211.679688 225.667969 212.390625 C 225.386719 217.347656 215.734375 213.230469 211.761719 218.402344 C 211.253906 219.042969 211.015625 219.769531 211.046875 220.582031 C 211.402344 226.671875 194.164062 227.792969 194.164062 227.792969 Z M 194.164062 227.792969 " fill-opacity="1" fill-rule="nonzero"/><path fill="#1ba59e" d="M 180.804688 211.660156 C 181.875 204.675781 178.957031 198.1875 173.199219 196.328125 C 172.632812 196.152344 172.121094 195.871094 171.667969 195.484375 C 171.214844 195.101562 170.855469 194.640625 170.59375 194.109375 C 167.160156 186.988281 157.308594 182.09375 155.410156 185.859375 C 155.28125 186.121094 155.089844 186.320312 154.84375 186.46875 C 154.59375 186.613281 154.324219 186.679688 154.035156 186.667969 C 148.664062 186.363281 146.121094 181.984375 145.101562 179.402344 C 145.019531 179.1875 144.878906 179.019531 144.683594 178.898438 C 144.484375 178.777344 144.269531 178.730469 144.042969 178.753906 C 143.8125 178.78125 143.613281 178.871094 143.445312 179.03125 C 143.277344 179.191406 143.179688 179.386719 143.144531 179.613281 C 142.582031 183.089844 145.003906 190.570312 148.539062 194.398438 C 149.015625 194.925781 149.269531 195.546875 149.300781 196.257812 C 149.582031 201.214844 159.230469 197.097656 163.207031 202.269531 C 163.714844 202.910156 163.949219 203.636719 163.917969 204.449219 C 163.566406 210.539062 180.804688 211.660156 180.804688 211.660156 Z M 180.804688 211.660156 " fill-opacity="1" fill-rule="nonzero"/><g clip-path="url(#9b66c30047)"><path fill="#3d3454" d="M 232.652344 195.621094 C 232.585938 195.207031 232.398438 194.855469 232.09375 194.570312 C 231.792969 194.28125 231.429688 194.113281 231.015625 194.070312 C 230.597656 194.023438 230.210938 194.109375 229.851562 194.324219 C 229.492188 194.539062 229.234375 194.84375 229.082031 195.234375 C 228.136719 197.628906 225.816406 201.683594 220.886719 201.964844 C 220.621094 201.96875 220.429688 201.855469 220.308594 201.617188 C 219.726562 200.460938 218.550781 199.839844 216.980469 199.847656 C 212.941406 199.882812 206.363281 204.179688 203.621094 209.878906 C 203.171875 210.773438 202.46875 211.367188 201.511719 211.664062 C 195.527344 213.59375 192.164062 220.28125 193.332031 227.921875 L 193.332031 227.949219 C 191.117188 231.664062 189.449219 235.613281 188.324219 239.789062 L 188.324219 177.757812 C 190.164062 177.609375 193.605469 176.886719 195.105469 173.640625 C 196.386719 170.878906 198.816406 170.339844 201.167969 169.8125 C 203.3125 169.335938 205.699219 168.792969 206.515625 166.3125 L 207.042969 166.238281 C 212.585938 165.402344 219.519531 163.054688 224.160156 152.546875 C 224.328125 152.339844 224.421875 152.101562 224.441406 151.835938 C 224.441406 151.738281 224.433594 151.636719 224.414062 151.539062 C 224.296875 151 223.804688 150.617188 223.320312 150.320312 C 222.957031 150.097656 222.730469 149.78125 222.648438 149.363281 C 222.386719 148.019531 221.363281 145.496094 219.261719 144.480469 C 219.414062 144.109375 219.484375 143.726562 219.472656 143.328125 C 219.460938 142.925781 219.371094 142.546875 219.195312 142.1875 C 219.019531 141.828125 218.777344 141.519531 218.472656 141.261719 C 218.164062 141.007812 217.816406 140.824219 217.433594 140.714844 L 217.246094 140.675781 C 216.761719 137.324219 213.960938 136.390625 212.566406 135.925781 L 212.25 135.816406 C 212.046875 135.75 211.902344 135.613281 211.816406 135.417969 C 210.933594 133.273438 207.617188 131.472656 204.695312 131.808594 C 203.089844 130.792969 201.339844 130.253906 199.441406 130.195312 C 199.296875 130.199219 199.191406 130.136719 199.125 130.011719 C 198.371094 128.460938 196.542969 127.21875 194.367188 126.757812 C 193.234375 126.519531 192.101562 126.511719 190.964844 126.726562 C 189.828125 126.945312 188.78125 127.378906 187.820312 128.019531 C 187.59375 128.164062 187.371094 128.164062 187.148438 128.019531 C 186.1875 127.382812 185.136719 126.953125 184.003906 126.738281 C 182.871094 126.519531 181.742188 126.53125 180.609375 126.769531 C 178.421875 127.226562 176.59375 128.472656 175.851562 130.023438 C 175.785156 130.148438 175.679688 130.207031 175.535156 130.207031 C 173.636719 130.265625 171.882812 130.800781 170.28125 131.820312 C 167.351562 131.484375 164.042969 133.28125 163.160156 135.429688 C 163.074219 135.625 162.929688 135.757812 162.726562 135.828125 L 162.410156 135.9375 C 161.007812 136.402344 158.210938 137.347656 157.734375 140.6875 C 157.671875 140.6875 157.605469 140.710938 157.542969 140.726562 C 157.351562 140.78125 157.167969 140.851562 156.992188 140.945312 C 156.816406 141.035156 156.652344 141.144531 156.5 141.273438 C 156.347656 141.402344 156.207031 141.542969 156.085938 141.699219 C 155.964844 141.855469 155.859375 142.023438 155.773438 142.203125 C 155.683594 142.378906 155.617188 142.566406 155.570312 142.757812 C 155.523438 142.953125 155.496094 143.148438 155.492188 143.347656 C 155.488281 143.546875 155.503906 143.742188 155.539062 143.9375 C 155.578125 144.132812 155.632812 144.320312 155.710938 144.503906 C 153.609375 145.523438 152.585938 148.042969 152.324219 149.390625 C 152.238281 149.804688 152.015625 150.125 151.652344 150.34375 C 151.371094 150.519531 150.710938 151.0625 150.625 151.589844 C 150.574219 151.871094 150.609375 152.140625 150.730469 152.398438 C 155.207031 163.121094 162.347656 165.402344 167.921875 166.253906 L 168.445312 166.332031 C 169.265625 168.8125 171.65625 169.351562 173.800781 169.828125 C 176.152344 170.355469 178.582031 170.898438 179.859375 173.65625 C 181.363281 176.90625 184.800781 177.625 186.644531 177.773438 L 186.644531 223.632812 C 185.511719 219.464844 183.839844 215.523438 181.628906 211.8125 C 181.628906 211.804688 181.628906 211.796875 181.628906 211.789062 C 182.800781 204.144531 179.4375 197.460938 173.453125 195.53125 C 172.496094 195.234375 171.792969 194.640625 171.34375 193.746094 C 168.59375 188.046875 162.023438 183.746094 157.976562 183.714844 L 157.929688 183.714844 C 156.390625 183.714844 155.226562 184.339844 154.648438 185.484375 C 154.53125 185.726562 154.339844 185.839844 154.074219 185.828125 C 149.144531 185.550781 146.824219 181.496094 145.878906 179.101562 C 145.726562 178.710938 145.46875 178.40625 145.109375 178.191406 C 144.753906 177.972656 144.363281 177.886719 143.949219 177.933594 C 143.53125 177.976562 143.171875 178.144531 142.867188 178.433594 C 142.5625 178.722656 142.378906 179.074219 142.3125 179.488281 C 141.726562 183.121094 144.097656 190.832031 147.910156 194.96875 C 148.253906 195.351562 148.433594 195.796875 148.453125 196.3125 C 148.632812 199.53125 151.78125 199.78125 154.828125 200.027344 C 157.625 200.25 160.78125 200.503906 162.53125 202.785156 C 162.914062 203.261719 163.09375 203.800781 163.074219 204.410156 C 162.714844 210.574219 176.320312 212.132812 180 212.441406 C 182.835938 217.035156 185.125 222.828125 186.4375 230.460938 C 186.566406 231.207031 186.628906 231.957031 186.632812 232.710938 L 186.632812 260.933594 C 186.628906 261.164062 186.703125 261.363281 186.855469 261.53125 C 187.007812 261.703125 187.199219 261.796875 187.425781 261.816406 C 187.667969 261.832031 187.875 261.753906 188.050781 261.589844 C 188.222656 261.421875 188.3125 261.21875 188.3125 260.980469 L 188.3125 248.859375 C 188.3125 248.101562 188.375 247.351562 188.503906 246.609375 C 189.820312 238.964844 192.105469 233.167969 194.941406 228.574219 C 198.621094 228.265625 212.230469 226.703125 211.871094 220.539062 C 211.851562 219.933594 212.03125 219.390625 212.410156 218.917969 C 214.164062 216.636719 217.324219 216.382812 220.117188 216.160156 C 223.160156 215.914062 226.308594 215.660156 226.488281 212.445312 C 226.507812 211.929688 226.6875 211.484375 227.03125 211.101562 C 230.867188 206.964844 233.234375 199.246094 232.652344 195.621094 Z M 164.761719 204.503906 C 164.804688 203.480469 164.507812 202.570312 163.875 201.765625 C 161.671875 198.894531 157.957031 198.597656 154.972656 198.355469 C 151.613281 198.078125 150.230469 197.816406 150.140625 196.21875 C 150.097656 195.308594 149.769531 194.511719 149.15625 193.835938 C 145.796875 190.203125 143.460938 182.9375 143.976562 179.753906 C 143.984375 179.65625 144.035156 179.605469 144.132812 179.601562 L 144.164062 179.601562 C 144.246094 179.597656 144.300781 179.636719 144.320312 179.714844 C 145.414062 182.480469 148.125 187.171875 153.988281 187.503906 C 154.441406 187.527344 154.867188 187.425781 155.261719 187.195312 C 155.65625 186.964844 155.957031 186.644531 156.160156 186.238281 C 156.265625 186.023438 156.59375 185.382812 157.96875 185.398438 C 161.445312 185.425781 167.390625 189.402344 169.835938 194.484375 C 170.148438 195.113281 170.574219 195.660156 171.113281 196.117188 C 171.648438 196.578125 172.253906 196.914062 172.929688 197.128906 C 177.609375 198.636719 180.421875 203.617188 180.15625 209.582031 C 175.304688 202.625 169.175781 198.570312 163.484375 194.800781 C 162.78125 194.335938 162.085938 193.875 161.398438 193.40625 C 161.230469 193.289062 161.046875 193.238281 160.839844 193.253906 C 160.636719 193.269531 160.460938 193.34375 160.3125 193.484375 C 160.222656 193.574219 160.15625 193.675781 160.113281 193.796875 C 160.070312 193.914062 160.054688 194.035156 160.066406 194.160156 C 160.078125 194.285156 160.117188 194.402344 160.179688 194.507812 C 160.246094 194.617188 160.328125 194.707031 160.433594 194.777344 C 161.128906 195.246094 161.835938 195.71875 162.554688 196.195312 C 168.113281 199.878906 174.09375 203.851562 178.824219 210.640625 C 173.644531 210.042969 164.542969 208.230469 164.761719 204.503906 Z M 222.191406 152.804688 C 217.945312 161.71875 212.046875 163.785156 206.796875 164.585938 L 206.171875 164.675781 C 206.484375 164.15625 206.679688 163.597656 206.757812 163 C 206.839844 162.402344 206.796875 161.8125 206.632812 161.230469 C 206.566406 160.972656 206.476562 160.722656 206.371094 160.480469 C 206.679688 160.421875 206.972656 160.355469 207.253906 160.28125 C 209.511719 159.675781 211.054688 158.488281 211.96875 156.648438 C 214.648438 152.128906 219.339844 152.542969 221.867188 152.765625 Z M 218.492188 146.582031 C 218.480469 146.511719 218.480469 146.445312 218.492188 146.375 C 218.519531 146.273438 218.554688 146.160156 218.597656 146.042969 C 220.101562 146.839844 220.835938 148.929688 220.980469 149.695312 C 221.082031 150.207031 221.304688 150.667969 221.640625 151.070312 C 220.40625 150.949219 219.175781 150.949219 217.945312 151.070312 C 218.484375 149.617188 218.667969 148.121094 218.492188 146.582031 Z M 216.910156 142.3125 C 217.160156 142.367188 217.367188 142.488281 217.535156 142.679688 C 217.675781 142.84375 217.757812 143.03125 217.789062 143.242188 C 217.820312 143.453125 217.789062 143.65625 217.703125 143.855469 L 217.667969 143.933594 C 217.566406 144.160156 217.464844 144.390625 217.363281 144.625 C 217.15625 145.082031 216.988281 145.554688 216.863281 146.042969 C 216.816406 146.296875 216.804688 146.550781 216.835938 146.808594 C 216.992188 148.433594 216.707031 149.984375 215.984375 151.449219 C 214.816406 151.789062 213.757812 152.335938 212.8125 153.09375 C 211.863281 153.851562 211.09375 154.757812 210.503906 155.820312 L 210.46875 155.878906 C 209.773438 157.273438 208.609375 158.167969 206.8125 158.648438 C 206.351562 158.769531 205.886719 158.863281 205.414062 158.929688 C 204.699219 158.0625 203.828125 157.402344 202.796875 156.949219 C 201.769531 156.496094 200.691406 156.300781 199.570312 156.359375 C 198.667969 156.386719 197.859375 156.132812 197.140625 155.59375 C 197.375 155.515625 197.609375 155.429688 197.839844 155.316406 C 199.167969 154.738281 200.261719 153.867188 201.121094 152.703125 C 205.585938 146.710938 213.515625 141.5 216.910156 142.3125 Z M 175.332031 144.445312 C 175.492188 145.132812 175.878906 145.644531 176.492188 145.988281 C 176.871094 146.199219 177.273438 146.304688 177.707031 146.304688 C 177.984375 146.308594 178.257812 146.265625 178.527344 146.179688 C 179.503906 145.863281 180.5 145.769531 181.519531 145.902344 C 181.792969 145.9375 182.027344 145.855469 182.222656 145.65625 C 182.578125 145.328125 182.960938 145.035156 183.371094 144.78125 C 183.78125 144.523438 184.214844 144.308594 184.664062 144.132812 C 185.113281 143.957031 185.578125 143.824219 186.054688 143.734375 C 186.527344 143.644531 187.007812 143.601562 187.492188 143.601562 C 187.976562 143.601562 188.457031 143.644531 188.933594 143.734375 C 189.40625 143.824219 189.871094 143.957031 190.320312 144.132812 C 190.773438 144.308594 191.203125 144.523438 191.613281 144.78125 C 192.023438 145.035156 192.40625 145.328125 192.761719 145.65625 C 192.957031 145.859375 193.195312 145.945312 193.476562 145.910156 C 194.492188 145.777344 195.492188 145.871094 196.46875 146.191406 C 197.167969 146.425781 197.839844 146.363281 198.484375 146.003906 C 199.101562 145.664062 199.488281 145.148438 199.648438 144.460938 C 200.167969 142.199219 201.492188 140.832031 203.585938 140.425781 C 205.152344 140.113281 208.0625 140.722656 210.136719 142.546875 C 206.398438 144.652344 202.445312 148.167969 199.78125 151.746094 C 199.300781 152.398438 198.714844 152.941406 198.027344 153.371094 C 197.339844 153.800781 196.597656 154.09375 195.800781 154.242188 C 193.761719 152.132812 190.839844 150.988281 187.484375 150.988281 C 184.125 150.988281 181.203125 152.132812 179.164062 154.230469 C 178.367188 154.074219 177.625 153.777344 176.9375 153.34375 C 176.253906 152.910156 175.667969 152.367188 175.1875 151.714844 C 172.535156 148.132812 168.582031 144.621094 164.832031 142.519531 C 166.90625 140.691406 169.816406 140.085938 171.386719 140.394531 C 173.488281 140.820312 174.8125 142.183594 175.332031 144.445312 Z M 172.976562 139.136719 C 175.378906 136.921875 178.707031 136.308594 180.128906 137.230469 C 180.382812 137.398438 180.660156 137.515625 180.957031 137.585938 C 181.253906 137.652344 181.550781 137.667969 181.855469 137.628906 C 182.15625 137.585938 182.441406 137.496094 182.710938 137.355469 C 182.980469 137.210938 183.214844 137.027344 183.417969 136.800781 C 184.113281 136.027344 185.378906 135.097656 187.484375 135.097656 C 189.585938 135.097656 190.839844 136.027344 191.546875 136.800781 C 191.75 137.027344 191.984375 137.214844 192.253906 137.355469 C 192.523438 137.5 192.808594 137.589844 193.109375 137.632812 C 193.410156 137.671875 193.710938 137.660156 194.007812 137.589844 C 194.304688 137.523438 194.582031 137.40625 194.835938 137.238281 C 196.257812 136.316406 199.59375 136.933594 201.988281 139.140625 C 199.949219 139.953125 198.550781 141.65625 197.996094 144.078125 C 197.949219 144.28125 197.832031 144.433594 197.652344 144.535156 C 197.4375 144.648438 197.21875 144.667969 196.988281 144.589844 C 195.898438 144.230469 194.785156 144.097656 193.640625 144.191406 C 192.785156 143.453125 191.828125 142.886719 190.769531 142.496094 C 189.707031 142.101562 188.613281 141.90625 187.484375 141.910156 C 186.351562 141.910156 185.257812 142.101562 184.199219 142.496094 C 183.136719 142.886719 182.179688 143.453125 181.324219 144.191406 C 180.179688 144.09375 179.058594 144.222656 177.964844 144.582031 C 177.738281 144.664062 177.515625 144.644531 177.304688 144.527344 C 177.121094 144.425781 177.007812 144.273438 176.957031 144.070312 C 176.414062 141.65625 175.015625 139.945312 172.976562 139.136719 Z M 210.265625 136.0625 C 210.539062 136.722656 211.011719 137.167969 211.6875 137.40625 C 211.792969 137.445312 211.90625 137.484375 212.03125 137.523438 C 213.578125 138.042969 215.09375 138.722656 215.515625 140.59375 C 214.183594 140.757812 212.917969 141.128906 211.710938 141.714844 C 211.394531 141.394531 211.054688 141.097656 210.691406 140.824219 C 210.433594 138.179688 209.035156 135.617188 207.074219 133.671875 C 208.582031 134.121094 209.875 135.117188 210.265625 136.050781 Z M 175.554688 131.871094 C 175.9375 131.871094 176.292969 131.769531 176.617188 131.566406 C 176.941406 131.367188 177.191406 131.09375 177.363281 130.753906 C 177.886719 129.675781 179.300781 128.753906 180.964844 128.410156 C 182.027344 128.183594 183.085938 128.207031 184.136719 128.476562 C 185.191406 128.75 186.125 129.238281 186.949219 129.949219 C 187.105469 130.078125 187.28125 130.144531 187.484375 130.144531 C 187.6875 130.144531 187.867188 130.078125 188.023438 129.949219 L 188.304688 129.722656 C 189.113281 129.089844 190.015625 128.660156 191.015625 128.425781 C 192.015625 128.195312 193.019531 128.1875 194.023438 128.398438 C 195.6875 128.742188 197.101562 129.664062 197.625 130.742188 C 197.796875 131.082031 198.042969 131.355469 198.371094 131.554688 C 198.695312 131.757812 199.050781 131.859375 199.433594 131.859375 C 203.605469 131.914062 207.726562 135.511719 208.796875 139.683594 C 207.253906 138.929688 205.621094 138.59375 203.90625 138.671875 C 200.992188 135.390625 196.261719 134.308594 193.921875 135.824219 C 193.742188 135.941406 193.546875 135.988281 193.335938 135.960938 C 193.121094 135.933594 192.945312 135.839844 192.800781 135.683594 C 191.878906 134.652344 190.207031 133.421875 187.484375 133.421875 C 184.757812 133.421875 183.089844 134.652344 182.164062 135.683594 C 182.019531 135.839844 181.84375 135.933594 181.632812 135.960938 C 181.417969 135.988281 181.222656 135.941406 181.046875 135.824219 C 178.707031 134.308594 173.972656 135.390625 171.070312 138.679688 C 169.351562 138.601562 167.722656 138.941406 166.179688 139.691406 C 167.25 135.523438 171.371094 131.929688 175.546875 131.867188 Z M 162.933594 137.519531 C 163.058594 137.480469 163.171875 137.441406 163.277344 137.402344 C 163.953125 137.167969 164.425781 136.71875 164.703125 136.058594 C 165.089844 135.125 166.382812 134.125 167.894531 133.675781 C 165.921875 135.632812 164.535156 138.1875 164.273438 140.839844 C 163.914062 141.109375 163.578125 141.398438 163.257812 141.710938 C 162.050781 141.125 160.78125 140.753906 159.449219 140.59375 C 159.871094 138.710938 161.386719 138.03125 162.933594 137.519531 Z M 153.980469 149.703125 C 154.128906 148.9375 154.859375 146.847656 156.363281 146.050781 C 156.398438 146.140625 156.425781 146.230469 156.449219 146.328125 C 156.476562 146.433594 156.484375 146.535156 156.472656 146.640625 C 156.3125 148.167969 156.5 149.648438 157.03125 151.089844 C 155.796875 150.964844 154.5625 150.964844 153.328125 151.089844 C 153.660156 150.675781 153.875 150.210938 153.972656 149.695312 Z M 168.167969 164.582031 C 162.917969 163.785156 157.019531 161.71875 152.773438 152.804688 L 153.121094 152.773438 C 155.640625 152.550781 160.339844 152.136719 163.019531 156.65625 C 163.933594 158.488281 165.476562 159.675781 167.738281 160.285156 C 168.019531 160.359375 168.296875 160.425781 168.613281 160.484375 C 168.507812 160.730469 168.421875 160.980469 168.355469 161.238281 C 168.191406 161.816406 168.148438 162.40625 168.230469 163.007812 C 168.308594 163.605469 168.503906 164.160156 168.816406 164.679688 Z M 168.167969 158.660156 C 166.371094 158.179688 165.207031 157.300781 164.507812 155.890625 L 164.476562 155.828125 C 163.886719 154.769531 163.117188 153.863281 162.167969 153.105469 C 161.21875 152.347656 160.160156 151.800781 158.996094 151.460938 C 158.273438 149.992188 157.996094 148.445312 158.15625 146.820312 C 158.183594 146.5625 158.175781 146.308594 158.128906 146.054688 C 158.003906 145.566406 157.835938 145.09375 157.625 144.632812 C 157.523438 144.398438 157.421875 144.167969 157.320312 143.941406 L 157.320312 143.921875 C 157.167969 143.585938 157.167969 143.253906 157.320312 142.917969 C 157.464844 142.621094 157.699219 142.429688 158.019531 142.34375 C 161.375 141.429688 169.382812 146.671875 173.878906 152.734375 C 174.730469 153.890625 175.8125 154.757812 177.125 155.339844 C 177.355469 155.4375 177.589844 155.527344 177.828125 155.617188 C 177.105469 156.15625 176.296875 156.410156 175.398438 156.378906 C 174.273438 156.320312 173.199219 156.519531 172.167969 156.972656 C 171.136719 157.425781 170.265625 158.085938 169.550781 158.953125 C 169.085938 158.882812 168.625 158.785156 168.167969 158.660156 Z M 169.976562 161.652344 C 170.460938 159.785156 172.597656 157.921875 175.328125 158.039062 C 176.203125 158.070312 177.042969 157.902344 177.839844 157.535156 C 178.640625 157.171875 179.3125 156.644531 179.863281 155.960938 C 181.582031 153.835938 184.289062 152.667969 187.484375 152.667969 C 190.675781 152.667969 193.382812 153.835938 195.101562 155.960938 C 195.652344 156.648438 196.328125 157.171875 197.128906 157.539062 C 197.925781 157.90625 198.769531 158.074219 199.648438 158.042969 C 202.378906 157.929688 204.511719 159.785156 204.996094 161.652344 C 205.210938 162.492188 205.371094 164.207031 203.382812 165.007812 C 202.542969 165.34375 199.894531 166.027344 199.894531 166.027344 C 195.84375 167.222656 191.707031 167.816406 187.484375 167.816406 C 183.261719 167.816406 179.121094 167.222656 175.070312 166.027344 C 175.070312 166.027344 172.425781 165.34375 171.585938 165.007812 C 169.59375 164.203125 169.753906 162.484375 169.96875 161.652344 Z M 187.484375 176.117188 C 186.398438 176.117188 182.75 175.886719 181.382812 172.941406 C 179.757812 169.425781 176.660156 168.75 174.167969 168.1875 C 172.050781 167.71875 170.730469 167.351562 170.160156 166.105469 C 170.394531 166.269531 170.640625 166.414062 170.898438 166.539062 C 170.941406 166.5625 170.988281 166.582031 171.035156 166.597656 L 174.605469 167.632812 C 178.808594 168.867188 183.101562 169.484375 187.484375 169.484375 C 191.863281 169.484375 196.15625 168.867188 200.359375 167.632812 L 203.929688 166.578125 C 203.976562 166.566406 204.023438 166.546875 204.066406 166.523438 C 204.328125 166.394531 204.574219 166.25 204.8125 166.082031 C 204.25 167.335938 202.921875 167.699219 200.800781 168.171875 C 198.308594 168.730469 195.203125 169.417969 193.582031 172.921875 C 192.21875 175.886719 188.570312 176.117188 187.484375 176.117188 Z M 225.808594 209.96875 C 225.199219 210.644531 224.871094 211.441406 224.828125 212.351562 C 224.738281 213.949219 223.359375 214.21875 219.996094 214.488281 C 217.011719 214.726562 213.296875 215.027344 211.09375 217.898438 C 210.457031 218.703125 210.164062 219.617188 210.207031 220.636719 C 210.421875 224.359375 201.324219 226.171875 196.140625 226.769531 C 200.875 219.980469 206.855469 216.007812 212.414062 212.324219 C 213.117188 211.851562 213.8125 211.390625 214.511719 210.925781 C 214.679688 210.8125 214.796875 210.660156 214.859375 210.46875 C 214.921875 210.273438 214.914062 210.082031 214.839844 209.890625 C 214.792969 209.773438 214.722656 209.675781 214.628906 209.589844 C 214.535156 209.503906 214.425781 209.445312 214.308594 209.410156 C 214.1875 209.371094 214.0625 209.363281 213.9375 209.382812 C 213.8125 209.402344 213.699219 209.445312 213.59375 209.515625 C 212.902344 209.988281 212.195312 210.453125 211.484375 210.914062 C 205.789062 214.691406 199.664062 218.757812 194.800781 225.703125 C 194.535156 219.734375 197.347656 214.757812 202.03125 213.246094 C 202.707031 213.035156 203.3125 212.695312 203.851562 212.238281 C 204.390625 211.777344 204.816406 211.230469 205.132812 210.59375 C 207.578125 205.515625 213.53125 201.542969 216.996094 201.511719 L 217.035156 201.511719 C 218.382812 201.511719 218.714844 202.148438 218.808594 202.347656 C 219.011719 202.757812 219.3125 203.078125 219.707031 203.308594 C 220.101562 203.539062 220.523438 203.640625 220.980469 203.617188 C 226.84375 203.285156 229.554688 198.589844 230.648438 195.828125 C 230.683594 195.742188 230.746094 195.707031 230.835938 195.71875 C 230.925781 195.726562 230.976562 195.777344 230.992188 195.867188 C 231.503906 199.0625 229.164062 206.332031 225.808594 209.96875 Z M 225.808594 209.96875 " fill-opacity="1" fill-rule="nonzero"/></g><g fill="#323559" fill-opacity="1"><g transform="translate(128.793365, 195.451462)"><g><path d="M -1.171875 -2.890625 L -8.875 3.0625 L -9.265625 2.0625 L -2.609375 -3.03125 L -10.484375 -2.359375 L -10.796875 -3.15625 L -4.671875 -8.15625 L -13 -7.171875 L -13.40625 -8.171875 L -3.734375 -9.25 L -3.296875 -8.171875 L -9.09375 -3.421875 L -1.609375 -3.96875 Z M -1.171875 -2.890625 "/></g></g></g><g fill="#323559" fill-opacity="1"><g transform="translate(122.959428, 178.900576)"><g><path d="M -0.21875 -1.390625 L -9.484375 0.0625 L -10.421875 -5.9375 L -9.515625 -6.078125 L -8.75 -1.125 L -5.46875 -1.640625 L -6.140625 -5.953125 L -5.265625 -6.09375 L -4.59375 -1.78125 L -1.34375 -2.28125 L -2.109375 -7.234375 L -1.15625 -7.390625 Z M -0.21875 -1.390625 "/></g></g></g><g fill="#323559" fill-opacity="1"><g transform="translate(121.372466, 166.210734)"><g><path d="M 0.0625 -1.40625 L -9.296875 -1.828125 L -9.1875 -4.21875 C -9.144531 -5.238281 -8.921875 -6.09375 -8.515625 -6.78125 C -8.117188 -7.46875 -7.5625 -7.972656 -6.84375 -8.296875 C -6.125 -8.628906 -5.253906 -8.769531 -4.234375 -8.71875 C -3.242188 -8.675781 -2.414062 -8.457031 -1.75 -8.0625 C -1.082031 -7.664062 -0.582031 -7.101562 -0.25 -6.375 C 0.0703125 -5.65625 0.210938 -4.789062 0.171875 -3.78125 Z M -0.859375 -2.515625 L -0.8125 -3.671875 C -0.78125 -4.210938 -0.828125 -4.71875 -0.953125 -5.1875 C -1.078125 -5.664062 -1.28125 -6.085938 -1.5625 -6.453125 C -1.851562 -6.816406 -2.226562 -7.101562 -2.6875 -7.3125 C -3.144531 -7.53125 -3.695312 -7.65625 -4.34375 -7.6875 C -5.5625 -7.738281 -6.503906 -7.46875 -7.171875 -6.875 C -7.835938 -6.289062 -8.195312 -5.378906 -8.25 -4.140625 L -8.3125 -2.84375 Z M -0.859375 -2.515625 "/></g></g></g><g fill="#323559" fill-opacity="1"><g transform="translate(122.474169, 152.388128)"><g><path d="M 0.359375 -1.359375 L -8.71875 -3.71875 L -8.125 -6.03125 C -7.863281 -7.019531 -7.46875 -7.804688 -6.9375 -8.390625 C -6.40625 -8.984375 -5.75 -9.363281 -4.96875 -9.53125 C -4.195312 -9.707031 -3.316406 -9.664062 -2.328125 -9.40625 C -1.378906 -9.164062 -0.617188 -8.78125 -0.046875 -8.25 C 0.523438 -7.71875 0.894531 -7.0625 1.0625 -6.28125 C 1.238281 -5.507812 1.203125 -4.632812 0.953125 -3.65625 Z M -0.3125 -2.640625 L -0.03125 -3.765625 C 0.101562 -4.285156 0.160156 -4.789062 0.140625 -5.28125 C 0.117188 -5.769531 0.0078125 -6.21875 -0.1875 -6.625 C -0.394531 -7.039062 -0.703125 -7.398438 -1.109375 -7.703125 C -1.515625 -8.015625 -2.03125 -8.25 -2.65625 -8.40625 C -3.84375 -8.71875 -4.820312 -8.65625 -5.59375 -8.21875 C -6.363281 -7.78125 -6.90625 -6.960938 -7.21875 -5.765625 L -7.546875 -4.515625 Z M -0.3125 -2.640625 "/></g></g></g><g fill="#323559" fill-opacity="1"><g transform="translate(126.590492, 139.042671)"><g><path d="M 0.578125 -1.28125 L -7.96875 -5.140625 L -7.53125 -6.109375 L 1.015625 -2.25 Z M 0.578125 -1.28125 "/></g></g></g><g fill="#323559" fill-opacity="1"><g transform="translate(130.244114, 131.336633)"><g><path d="M 0.78125 -1.171875 L -6.984375 -6.421875 L -6.125 -7.671875 L 2.984375 -6.40625 L -3.859375 -11.03125 L -3.28125 -11.875 L 4.484375 -6.625 L 3.625 -5.359375 L -5.484375 -6.671875 L 1.375 -2.03125 Z M 0.78125 -1.171875 "/></g></g></g><g fill="#323559" fill-opacity="1"><g transform="translate(138.414748, 120.048936)"><g><path d="M 3.734375 -3.375 C 3.316406 -2.976562 2.882812 -2.679688 2.4375 -2.484375 C 2 -2.296875 1.554688 -2.195312 1.109375 -2.1875 C 0.660156 -2.175781 0.21875 -2.234375 -0.21875 -2.359375 C -0.65625 -2.492188 -1.078125 -2.703125 -1.484375 -2.984375 C -1.898438 -3.265625 -2.285156 -3.59375 -2.640625 -3.96875 C -3.003906 -4.34375 -3.3125 -4.738281 -3.5625 -5.15625 C -3.8125 -5.582031 -3.992188 -6.015625 -4.109375 -6.453125 C -4.234375 -6.898438 -4.273438 -7.347656 -4.234375 -7.796875 C -4.203125 -8.253906 -4.082031 -8.695312 -3.875 -9.125 C -3.664062 -9.550781 -3.351562 -9.960938 -2.9375 -10.359375 C -2.300781 -10.972656 -1.601562 -11.347656 -0.84375 -11.484375 C -0.0820312 -11.628906 0.707031 -11.523438 1.53125 -11.171875 L 1.125 -10.234375 C 0.488281 -10.472656 -0.113281 -10.546875 -0.6875 -10.453125 C -1.269531 -10.367188 -1.800781 -10.101562 -2.28125 -9.65625 C -2.6875 -9.257812 -2.960938 -8.847656 -3.109375 -8.421875 C -3.253906 -8.003906 -3.296875 -7.578125 -3.234375 -7.140625 C -3.171875 -6.710938 -3.023438 -6.289062 -2.796875 -5.875 C -2.578125 -5.46875 -2.296875 -5.085938 -1.953125 -4.734375 C -1.578125 -4.347656 -1.179688 -4.023438 -0.765625 -3.765625 C -0.359375 -3.515625 0.0546875 -3.34375 0.484375 -3.25 C 0.921875 -3.164062 1.359375 -3.1875 1.796875 -3.3125 C 2.234375 -3.4375 2.65625 -3.691406 3.0625 -4.078125 C 3.351562 -4.359375 3.578125 -4.671875 3.734375 -5.015625 C 3.898438 -5.359375 3.988281 -5.71875 4 -6.09375 C 4.019531 -6.46875 3.957031 -6.847656 3.8125 -7.234375 C 3.664062 -7.617188 3.421875 -8 3.078125 -8.375 L 1.53125 -6.890625 L 0.953125 -7.484375 L 3.234375 -9.65625 L 6.515625 -6.21875 L 5.875 -5.609375 L 4.671875 -6.84375 C 4.804688 -6.519531 4.867188 -6.160156 4.859375 -5.765625 C 4.859375 -5.367188 4.765625 -4.960938 4.578125 -4.546875 C 4.398438 -4.140625 4.117188 -3.75 3.734375 -3.375 Z M 3.734375 -3.375 "/></g></g></g><g fill="#323559" fill-opacity="1"><g transform="translate(149.460473, 110.444108)"><g/></g></g><g fill="#323559" fill-opacity="1"><g transform="translate(156.387783, 105.958276)"><g><path d="M 4.640625 -1.921875 C 4.117188 -1.691406 3.617188 -1.554688 3.140625 -1.515625 C 2.671875 -1.484375 2.21875 -1.535156 1.78125 -1.671875 C 1.351562 -1.816406 0.957031 -2.023438 0.59375 -2.296875 C 0.226562 -2.578125 -0.0976562 -2.914062 -0.390625 -3.3125 C -0.679688 -3.707031 -0.929688 -4.140625 -1.140625 -4.609375 C -1.359375 -5.085938 -1.507812 -5.570312 -1.59375 -6.0625 C -1.6875 -6.550781 -1.71875 -7.019531 -1.6875 -7.46875 C -1.65625 -7.925781 -1.546875 -8.359375 -1.359375 -8.765625 C -1.171875 -9.179688 -0.90625 -9.554688 -0.5625 -9.890625 C -0.21875 -10.234375 0.210938 -10.519531 0.734375 -10.75 C 1.546875 -11.113281 2.332031 -11.226562 3.09375 -11.09375 C 3.851562 -10.96875 4.566406 -10.601562 5.234375 -10 L 4.515625 -9.25 C 4.003906 -9.695312 3.457031 -9.972656 2.875 -10.078125 C 2.300781 -10.191406 1.710938 -10.113281 1.109375 -9.84375 C 0.597656 -9.613281 0.207031 -9.320312 -0.0625 -8.96875 C -0.34375 -8.625 -0.523438 -8.238281 -0.609375 -7.8125 C -0.703125 -7.394531 -0.710938 -6.953125 -0.640625 -6.484375 C -0.566406 -6.023438 -0.429688 -5.566406 -0.234375 -5.109375 C -0.015625 -4.617188 0.242188 -4.1875 0.546875 -3.8125 C 0.847656 -3.4375 1.1875 -3.128906 1.5625 -2.890625 C 1.945312 -2.660156 2.363281 -2.53125 2.8125 -2.5 C 3.257812 -2.476562 3.738281 -2.578125 4.25 -2.796875 C 4.625 -2.960938 4.945312 -3.179688 5.21875 -3.453125 C 5.488281 -3.722656 5.691406 -4.03125 5.828125 -4.375 C 5.972656 -4.726562 6.039062 -5.109375 6.03125 -5.515625 C 6.019531 -5.929688 5.914062 -6.363281 5.71875 -6.8125 L 3.765625 -5.953125 L 3.4375 -6.71875 L 6.3125 -7.984375 L 8.234375 -3.640625 L 7.421875 -3.296875 L 6.71875 -4.859375 C 6.738281 -4.503906 6.675781 -4.140625 6.53125 -3.765625 C 6.382812 -3.398438 6.15625 -3.054688 5.84375 -2.734375 C 5.53125 -2.410156 5.128906 -2.140625 4.640625 -1.921875 Z M 4.640625 -1.921875 "/></g></g></g><g fill="#323559" fill-opacity="1"><g transform="translate(169.897239, 100.572251)"><g><path d="M 0.40625 -0.09375 L 1.921875 -9.984375 L 2.703125 -10.15625 L 8.078125 -1.703125 L 6.96875 -1.46875 L 5.84375 -3.3125 L 1.8125 -2.453125 L 1.53125 -0.328125 Z M 1.953125 -3.484375 L 5.296875 -4.1875 L 2.65625 -8.5625 Z M 1.953125 -3.484375 "/></g></g></g><g fill="#323559" fill-opacity="1"><g transform="translate(182.96948, 98.338978)"><g><path d="M 1.40625 -0.03125 L 1.203125 -9.40625 L 2.265625 -9.421875 L 2.453125 -1.015625 L 6.453125 -1.109375 L 6.46875 -0.140625 Z M 1.40625 -0.03125 "/></g></g></g><g fill="#323559" fill-opacity="1"><g transform="translate(194.488772, 98.498241)"><g><path d="M 1.390625 0.21875 L 2.8125 -9.046875 L 3.859375 -8.890625 L 2.578125 -0.578125 L 6.53125 0.03125 L 6.390625 0.984375 Z M 1.390625 0.21875 "/></g></g></g><g fill="#323559" fill-opacity="1"><g transform="translate(205.790924, 100.601014)"><g><path d="M 1.328125 0.46875 L 4.421875 -8.375 L 10.15625 -6.375 L 9.859375 -5.53125 L 5.125 -7.1875 L 4.015625 -4.046875 L 8.140625 -2.609375 L 7.859375 -1.765625 L 3.734375 -3.203125 L 2.640625 -0.109375 L 7.375 1.546875 L 7.0625 2.46875 Z M 1.328125 0.46875 "/></g></g></g><g fill="#323559" fill-opacity="1"><g transform="translate(217.726573, 105.242357)"><g><path d="M 1.203125 0.71875 L 5.9375 -7.375 L 8.25 -6.015625 C 8.601562 -5.804688 8.90625 -5.5625 9.15625 -5.28125 C 9.40625 -5.007812 9.585938 -4.707031 9.703125 -4.375 C 9.828125 -4.050781 9.875 -3.710938 9.84375 -3.359375 C 9.8125 -3.003906 9.691406 -2.648438 9.484375 -2.296875 C 9.273438 -1.929688 9.007812 -1.644531 8.6875 -1.4375 C 8.375 -1.226562 8.035156 -1.101562 7.671875 -1.0625 C 7.304688 -1.019531 6.925781 -1.066406 6.53125 -1.203125 L 6.53125 3.828125 L 5.46875 3.21875 L 5.5625 -1.59375 L 4.234375 -2.359375 L 2.109375 1.265625 Z M 4.71875 -3.203125 L 6.28125 -2.296875 C 6.570312 -2.148438 6.863281 -2.066406 7.15625 -2.046875 C 7.445312 -2.023438 7.71875 -2.078125 7.96875 -2.203125 C 8.21875 -2.328125 8.425781 -2.535156 8.59375 -2.828125 C 8.769531 -3.128906 8.847656 -3.425781 8.828125 -3.71875 C 8.816406 -4.019531 8.71875 -4.296875 8.53125 -4.546875 C 8.351562 -4.804688 8.109375 -5.023438 7.796875 -5.203125 L 6.375 -6.03125 Z M 4.71875 -3.203125 "/></g></g></g><g fill="#323559" fill-opacity="1"><g transform="translate(228.455878, 111.985852)"><g><path d="M 2.890625 2.5625 L 5.328125 -0.1875 L 6.453125 -6.796875 L 7.390625 -5.984375 L 6.40625 -0.65625 L 11.5625 -2.296875 L 12.484375 -1.46875 L 6.109375 0.484375 L 3.671875 3.234375 Z M 2.890625 2.5625 "/></g></g></g><g fill="#323559" fill-opacity="1"><g transform="translate(238.088735, 121.285907)"><g/></g></g><g fill="#323559" fill-opacity="1"><g transform="translate(243.160209, 127.854796)"><g><path d="M 1.828125 3.34375 C 1.628906 3.007812 1.484375 2.65625 1.390625 2.28125 C 1.296875 1.914062 1.265625 1.550781 1.296875 1.1875 C 1.328125 0.832031 1.425781 0.488281 1.59375 0.15625 C 1.757812 -0.164062 2.015625 -0.46875 2.359375 -0.75 L 3.09375 -0.03125 C 2.757812 0.207031 2.523438 0.488281 2.390625 0.8125 C 2.265625 1.144531 2.226562 1.488281 2.28125 1.84375 C 2.332031 2.195312 2.453125 2.535156 2.640625 2.859375 C 2.828125 3.179688 3.039062 3.429688 3.28125 3.609375 C 3.53125 3.796875 3.800781 3.894531 4.09375 3.90625 C 4.394531 3.914062 4.710938 3.828125 5.046875 3.640625 C 5.296875 3.484375 5.484375 3.296875 5.609375 3.078125 C 5.742188 2.859375 5.820312 2.617188 5.84375 2.359375 C 5.875 2.097656 5.878906 1.816406 5.859375 1.515625 C 5.835938 1.210938 5.800781 0.90625 5.75 0.59375 C 5.707031 0.289062 5.679688 -0.00390625 5.671875 -0.296875 C 5.660156 -0.597656 5.679688 -0.894531 5.734375 -1.1875 C 5.785156 -1.476562 5.890625 -1.738281 6.046875 -1.96875 C 6.210938 -2.207031 6.445312 -2.414062 6.75 -2.59375 C 7.0625 -2.769531 7.378906 -2.875 7.703125 -2.90625 C 8.023438 -2.945312 8.332031 -2.914062 8.625 -2.8125 C 8.925781 -2.71875 9.195312 -2.566406 9.4375 -2.359375 C 9.6875 -2.160156 9.898438 -1.910156 10.078125 -1.609375 C 10.359375 -1.128906 10.507812 -0.640625 10.53125 -0.140625 C 10.5625 0.359375 10.429688 0.863281 10.140625 1.375 L 9.296875 0.953125 C 9.515625 0.617188 9.613281 0.265625 9.59375 -0.109375 C 9.582031 -0.484375 9.484375 -0.835938 9.296875 -1.171875 C 9.160156 -1.390625 8.988281 -1.566406 8.78125 -1.703125 C 8.570312 -1.847656 8.34375 -1.925781 8.09375 -1.9375 C 7.851562 -1.957031 7.601562 -1.894531 7.34375 -1.75 C 7.125 -1.613281 6.960938 -1.445312 6.859375 -1.25 C 6.753906 -1.050781 6.691406 -0.820312 6.671875 -0.5625 C 6.660156 -0.300781 6.664062 -0.0195312 6.6875 0.28125 C 6.71875 0.582031 6.75 0.882812 6.78125 1.1875 C 6.820312 1.5 6.84375 1.804688 6.84375 2.109375 C 6.851562 2.421875 6.820312 2.722656 6.75 3.015625 C 6.675781 3.304688 6.550781 3.578125 6.375 3.828125 C 6.195312 4.078125 5.945312 4.296875 5.625 4.484375 C 5.269531 4.691406 4.910156 4.816406 4.546875 4.859375 C 4.179688 4.898438 3.832031 4.863281 3.5 4.75 C 3.164062 4.644531 2.851562 4.46875 2.5625 4.21875 C 2.28125 3.976562 2.035156 3.6875 1.828125 3.34375 Z M 1.828125 3.34375 "/></g></g></g><g fill="#323559" fill-opacity="1"><g transform="translate(248.869549, 138.375401)"><g><path d="M 1.203125 3.359375 L 9.21875 0.5 L 8.140625 -2.484375 L 8.953125 -2.78125 L 11.453125 4.1875 L 10.640625 4.484375 L 9.578125 1.5 L 1.5625 4.359375 Z M 1.203125 3.359375 "/></g></g></g><g fill="#323559" fill-opacity="1"><g transform="translate(252.773167, 150.521535)"><g><path d="M 0.53125 4.453125 C 0.4375 3.878906 0.453125 3.375 0.578125 2.9375 C 0.710938 2.5 0.925781 2.128906 1.21875 1.828125 C 1.519531 1.523438 1.867188 1.28125 2.265625 1.09375 C 2.671875 0.90625 3.109375 0.773438 3.578125 0.703125 L 9.453125 -0.15625 L 9.609375 0.890625 L 4.015625 1.703125 C 3.628906 1.765625 3.265625 1.851562 2.921875 1.96875 C 2.585938 2.09375 2.300781 2.257812 2.0625 2.46875 C 1.832031 2.675781 1.664062 2.925781 1.5625 3.21875 C 1.457031 3.519531 1.4375 3.882812 1.5 4.3125 C 1.550781 4.738281 1.671875 5.082031 1.859375 5.34375 C 2.046875 5.601562 2.28125 5.796875 2.5625 5.921875 C 2.851562 6.054688 3.175781 6.128906 3.53125 6.140625 C 3.894531 6.160156 4.269531 6.140625 4.65625 6.078125 L 10.25 5.265625 L 10.40625 6.328125 L 4.59375 7.1875 C 4.113281 7.25 3.644531 7.25 3.1875 7.1875 C 2.726562 7.132812 2.3125 7.003906 1.9375 6.796875 C 1.570312 6.585938 1.265625 6.285156 1.015625 5.890625 C 0.773438 5.503906 0.613281 5.023438 0.53125 4.453125 Z M 0.53125 4.453125 "/></g></g></g><g fill="#323559" fill-opacity="1"><g transform="translate(254.277238, 163.957414)"><g><path d="M -0.09375 1.40625 L 9.265625 1.984375 L 9.125 4.375 C 9.0625 5.382812 8.828125 6.226562 8.421875 6.90625 C 8.015625 7.582031 7.445312 8.082031 6.71875 8.40625 C 5.988281 8.726562 5.113281 8.859375 4.09375 8.796875 C 3.113281 8.734375 2.289062 8.492188 1.625 8.078125 C 0.957031 7.671875 0.460938 7.101562 0.140625 6.375 C -0.171875 5.644531 -0.296875 4.78125 -0.234375 3.78125 Z M 0.8125 2.53125 L 0.75 3.6875 C 0.71875 4.21875 0.757812 4.722656 0.875 5.203125 C 0.988281 5.679688 1.1875 6.101562 1.46875 6.46875 C 1.75 6.832031 2.117188 7.125 2.578125 7.34375 C 3.035156 7.570312 3.582031 7.703125 4.21875 7.734375 C 5.4375 7.816406 6.382812 7.566406 7.0625 6.984375 C 7.738281 6.410156 8.113281 5.507812 8.1875 4.28125 L 8.265625 2.984375 Z M 0.8125 2.53125 "/></g></g></g><g fill="#323559" fill-opacity="1"><g transform="translate(252.800406, 177.844231)"><g><path d="M -0.328125 1.375 L 8.796875 3.515625 L 8.5625 4.546875 L -0.5625 2.40625 Z M -0.328125 1.375 "/></g></g></g><g fill="#323559" fill-opacity="1"><g transform="translate(250.718469, 186.103162)"><g><path d="M -2.09375 4.5625 C -1.863281 4.03125 -1.585938 3.585938 -1.265625 3.234375 C -0.941406 2.890625 -0.578125 2.625 -0.171875 2.4375 C 0.234375 2.257812 0.664062 2.144531 1.125 2.09375 C 1.582031 2.039062 2.050781 2.0625 2.53125 2.15625 C 3.019531 2.25 3.503906 2.394531 3.984375 2.59375 C 4.460938 2.800781 4.898438 3.046875 5.296875 3.328125 C 5.691406 3.617188 6.03125 3.945312 6.3125 4.3125 C 6.601562 4.6875 6.816406 5.082031 6.953125 5.5 C 7.097656 5.925781 7.160156 6.375 7.140625 6.84375 C 7.117188 7.320312 6.992188 7.828125 6.765625 8.359375 C 6.546875 8.878906 6.265625 9.316406 5.921875 9.671875 C 5.585938 10.023438 5.21875 10.296875 4.8125 10.484375 C 4.414062 10.679688 3.984375 10.800781 3.515625 10.84375 C 3.054688 10.894531 2.585938 10.875 2.109375 10.78125 C 1.628906 10.6875 1.148438 10.535156 0.671875 10.328125 C 0.191406 10.128906 -0.242188 9.882812 -0.640625 9.59375 C -1.046875 9.3125 -1.390625 8.988281 -1.671875 8.625 C -1.953125 8.257812 -2.164062 7.859375 -2.3125 7.421875 C -2.457031 6.992188 -2.507812 6.539062 -2.46875 6.0625 C -2.4375 5.582031 -2.3125 5.082031 -2.09375 4.5625 Z M -1.203125 4.9375 C -1.421875 5.457031 -1.515625 5.945312 -1.484375 6.40625 C -1.460938 6.863281 -1.332031 7.28125 -1.09375 7.65625 C -0.863281 8.039062 -0.5625 8.375 -0.1875 8.65625 C 0.1875 8.945312 0.601562 9.191406 1.0625 9.390625 C 1.519531 9.585938 1.984375 9.722656 2.453125 9.796875 C 2.929688 9.867188 3.382812 9.859375 3.8125 9.765625 C 4.25 9.679688 4.644531 9.492188 5 9.203125 C 5.363281 8.910156 5.65625 8.503906 5.875 7.984375 C 6.101562 7.460938 6.195312 6.976562 6.15625 6.53125 C 6.113281 6.082031 5.976562 5.664062 5.75 5.28125 C 5.519531 4.90625 5.210938 4.566406 4.828125 4.265625 C 4.453125 3.972656 4.035156 3.726562 3.578125 3.53125 C 3.117188 3.332031 2.65625 3.203125 2.1875 3.140625 C 1.71875 3.078125 1.265625 3.085938 0.828125 3.171875 C 0.390625 3.265625 0 3.453125 -0.34375 3.734375 C -0.6875 4.015625 -0.972656 4.414062 -1.203125 4.9375 Z M -1.203125 4.9375 "/></g></g></g></svg>